<?xml version="1.0" encoding="UTF-8"?>
<svg width="692px" height="500px" viewBox="0 0 692 500" version="1.1" xmlns="http://www.w3.org/2000/svg" xmlns:xlink="http://www.w3.org/1999/xlink">
    <title>banner-img-learning</title>
    <g id="Page-1" stroke="none" stroke-width="1" fill="none" fill-rule="evenodd">
        <g id="banner-img-learning" fill-rule="nonzero">
            <path d="M691,496.04308 L1,496.04308 C0.44771525,496.04308 0,495.595365 0,495.04308 C0,494.490795 0.44771525,494.04308 1,494.04308 L691,494.04308 C691.552285,494.04308 692,494.490795 692,495.04308 C692,495.595365 691.552285,496.04308 691,496.04308 Z" id="Path" fill="#CCCCCC"></path>
            <path d="M622.70437,321.64134 L216.70437,321.64134 C213.114519,321.64134 210.20437,324.551499 210.20437,328.14134 C210.20437,331.731201 213.114519,334.64134 216.70437,334.64134 L228.20437,334.64134 L228.20437,490.14134 C228.20437,493.731201 231.114519,496.64134 234.70437,496.64134 C238.294221,496.64134 241.20437,493.731201 241.20437,490.14134 L241.30315,334.64134 L597.20437,334.64134 L597.20437,490.14134 C597.20437,493.731201 600.114519,496.64134 603.70437,496.64134 C607.294221,496.64134 610.20437,493.731201 610.20437,490.14134 L610.20437,338.06871 L612.09548,334.64134 L622.70437,334.64134 C626.294221,334.64134 629.20437,331.731191 629.20437,328.14134 C629.20437,324.551489 626.294221,321.64134 622.70437,321.64134 L622.70437,321.64134 Z" id="Path" fill="#CCCCCC"></path>
            <path d="M441.79406,325.04308 L318.81224,325.04308 C313.854043,325.03747 309.83603,321.019457 309.83042,316.06126 L309.83042,248.35217 C309.83603,243.393973 313.854043,239.37596 318.81224,239.37035 L441.79406,239.37035 C446.752257,239.37596 450.77027,243.393973 450.77588,248.35217 L450.77588,316.06126 C450.77027,321.019457 446.752257,325.03747 441.79406,325.04308 L441.79406,325.04308 Z" id="Path" fill="#3F3D56"></path>
            <path d="M441.79338,246.28307 L318.81292,246.28307 C317.67072,246.285485 316.745411,247.21087 316.74309,248.35307 L316.74309,316.06307 C316.745439,317.205259 317.670731,318.130628 318.81292,318.13307 L441.79338,318.13307 C442.935569,318.130628 443.860861,317.205259 443.86321,316.06307 L443.86321,248.35307 C443.860889,247.21087 442.93558,246.285485 441.79338,246.28307 Z" id="Path" fill="#FFFFFF"></path>
            <path d="M390.792,294.22119 C390.792,294.22119 376.06974,290.82872 367.97249,297.04819 C359.87524,303.26766 378.27808,317.40299 378.27808,317.40299 L390.792,294.22119 Z" id="Path" fill="#2F2E41"></path>
            <circle id="Oval" fill="#A0616A" cx="381.0242" cy="273.92427" r="13.88708"></circle>
            <path d="M370.28574,254.43013 C372.173821,251.225271 375.699287,249.34952 379.41216,249.57435 C381.316922,249.813221 383.175674,250.333525 384.92764,251.11825 L394.00591,254.65952 C396.35503,255.57586 398.92782,256.69831 399.94718,259.0046 C400.89328,261.14515 400.18741,263.61726 399.47287,265.84583 L396.07634,276.43913 C395.700131,274.041573 395.054462,271.694149 394.1516,269.44145 C393.234001,267.173644 391.575932,265.28312 389.44721,264.07752 C387.08912,262.86782 384.30976,262.89287 381.66255,263.02027 C377.91341,263.2007 373.83703,263.67769 371.17324,266.32208 C369.759191,267.823857 368.800512,269.696194 368.40868,271.72137 C368.023028,273.735728 367.828915,275.782068 367.82894,277.83301 C366.29152,275.190276 364.99645,272.413813 363.95958,269.5376 C363.106668,267.395949 362.620644,265.125914 362.52191,262.82279 C362.432791,260.499948 363.203496,258.225837 364.68649,256.43579 C366.222096,254.651498 368.636278,253.891679 370.917,254.47485 L370.28574,254.43013 Z" id="Path" fill="#2F2E41"></path>
            <path d="M414.183,306.26305 C413.916389,305.304067 413.100589,304.598556 412.11318,304.47305 C412.081211,304.450806 412.047767,304.43076 412.01308,304.41305 L391.28167,292.79485 C390.051879,292.105726 388.497576,292.505807 387.75334,293.70305 L382.08342,302.88311 L373.54342,294.34311 L373.40768,294.2073 C372.50293,293.302647 371.079264,293.178144 370.03122,293.91202 L352.99313,305.84311 C352.96335,305.84311 352.93307,305.85311 352.90329,305.85311 C351.223443,306.133104 349.963601,307.542499 349.87301,309.24311 L349.43307,318.13311 L417.47307,318.13311 L414.183,306.26305 Z" id="Path" fill="#F9BE33"></path>
            <path d="M452.1577,316.75217 L439.03042,316.75217 C439.030414,315.989014 438.411756,315.37035 437.6486,315.37035 L433.50315,315.37035 C432.739996,315.37035 432.121341,315.989016 432.12133,316.75217 L427.97588,316.75217 C427.975869,315.989016 427.357214,315.37035 426.59406,315.37035 L422.4486,315.37035 C421.685448,315.37035 421.066796,315.989018 421.06679,316.75217 L416.92133,316.75217 C416.921324,315.989014 416.302666,315.37035 415.53951,315.37035 L411.39406,315.37035 C410.630906,315.37035 410.012251,315.989016 410.01224,316.75217 L405.86679,316.75217 C405.866779,315.989028 405.248142,315.37035 404.485,315.37035 L400.33954,315.37035 C399.576388,315.37035 398.957736,315.989018 398.95773,316.75217 L394.81227,316.75217 C394.812264,315.989014 394.193606,315.37035 393.43045,315.37035 L389.285,315.37035 C388.521844,315.37035 387.903186,315.989014 387.90318,316.75217 L383.7577,316.75217 C383.757689,315.989016 383.139034,315.37035 382.37588,315.37035 L378.23042,315.37035 C377.467266,315.37035 376.848611,315.989016 376.8486,316.75217 L372.70315,316.75217 C372.703144,315.989014 372.084486,315.37035 371.32133,315.37035 L367.17588,315.37035 C366.412724,315.37035 365.794066,315.989014 365.79406,316.75217 L361.6486,316.75217 C361.648594,315.989018 361.029942,315.37035 360.26679,315.37035 L356.12133,315.37035 C355.358176,315.37035 354.739521,315.989016 354.73951,316.75217 L350.59406,316.75217 C350.594049,315.989016 349.975394,315.37035 349.21224,315.37035 L345.06679,315.37035 C344.303634,315.37035 343.684976,315.989014 343.68497,316.75217 L339.53951,316.75217 C339.539504,315.989018 338.920852,315.37035 338.1577,315.37035 L334.01224,315.37035 C333.249086,315.37035 332.630431,315.989016 332.63042,316.75217 L328.485,316.75217 C328.484989,315.989016 327.866334,315.37035 327.10318,315.37035 L322.9577,315.37035 C322.194544,315.37035 321.575886,315.989014 321.57588,316.75217 L308.4486,316.75217 C306.161642,316.755722 304.309579,318.610665 304.309579,320.897625 C304.309579,323.184585 306.161642,325.039528 308.4486,325.04308 L452.1577,325.04308 C454.447172,325.04308 456.303155,323.187097 456.303155,320.897625 C456.303155,318.608153 454.447172,316.75217 452.1577,316.75217 Z" id="Path" fill="#3F3D56"></path>
            <path d="M287.07906,292.67829 L287.07906,320.20401 L218.11681,320.20401 C213.085615,320.379083 208.35983,317.79486 205.792331,313.464558 C203.224831,309.134255 203.224831,303.748045 205.792331,299.417742 C208.35983,295.08744 213.085615,292.503217 218.11681,292.67829 L287.07906,292.67829 Z" id="Path" fill="#F2F2F2"></path>
            <path d="M288.773,319.99227 C288.773,320.576869 288.298919,321.05095 287.71432,321.05095 L216.88852,321.05095 C208.878218,321.05095 202.384585,314.557317 202.384585,306.547015 C202.384585,298.536713 208.878218,292.04308 216.88852,292.04308 L287.71432,292.04308 C288.299013,292.04308 288.773,292.517067 288.773,293.10176 C288.773,293.686453 288.299013,294.16044 287.71432,294.16044 L216.88852,294.16044 C210.051949,294.166583 204.51307,299.710442 204.51307,306.547015 C204.51307,313.383588 210.051949,318.927447 216.88852,318.93359 L287.71432,318.93359 C288.298917,318.933822 288.773,319.407673 288.773,319.99227 L288.773,319.99227 Z" id="Path" fill="#F9BE33"></path>
            <path d="M287.07906,299.03035 L212.97135,299.03035 C212.895358,299.030872 212.824913,298.99063 212.786766,298.924905 C212.748618,298.859179 212.748618,298.778051 212.786766,298.712325 C212.824913,298.6466 212.895358,298.606358 212.97135,298.60688 L287.07906,298.60688 C287.19543,298.60768 287.289345,298.702242 287.289345,298.818615 C287.289345,298.934988 287.19543,299.02955 287.07906,299.03035 L287.07906,299.03035 Z" id="Path" fill="#CCCCCC"></path>
            <path d="M287.07906,304.11205 L212.97135,304.11205 C212.895358,304.112572 212.824913,304.07233 212.786766,304.006605 C212.748618,303.940879 212.748618,303.859751 212.786766,303.794025 C212.824913,303.7283 212.895358,303.688058 212.97135,303.68858 L287.07906,303.68858 C287.19543,303.68938 287.289345,303.783942 287.289345,303.900315 C287.289345,304.016688 287.19543,304.11125 287.07906,304.11205 Z" id="Path" fill="#CCCCCC"></path>
            <path d="M287.07906,309.19372 L212.97135,309.19372 C212.895358,309.194242 212.824913,309.154 212.786766,309.088275 C212.748618,309.022549 212.748618,308.941421 212.786766,308.875695 C212.824913,308.80997 212.895358,308.769728 212.97135,308.77025 L287.07906,308.77025 C287.19543,308.77105 287.289345,308.865612 287.289345,308.981985 C287.289345,309.098358 287.19543,309.19292 287.07906,309.19372 L287.07906,309.19372 Z" id="Path" fill="#CCCCCC"></path>
            <path d="M287.07906,314.27535 L212.97135,314.27535 C212.895358,314.275872 212.824913,314.23563 212.786766,314.169905 C212.748618,314.104179 212.748618,314.023051 212.786766,313.957325 C212.824913,313.8916 212.895358,313.851358 212.97135,313.85188 L287.07906,313.85188 C287.19543,313.85268 287.289345,313.947242 287.289345,314.063615 C287.289345,314.179988 287.19543,314.27455 287.07906,314.27535 L287.07906,314.27535 Z" id="Path" fill="#CCCCCC"></path>
            <path d="M274.07906,263.67829 L274.07906,291.20401 L205.11681,291.20401 C200.085615,291.379083 195.35983,288.79486 192.792331,284.464558 C190.224831,280.134255 190.224831,274.748045 192.792331,270.417742 C195.35983,266.08744 200.085615,263.503217 205.11681,263.67829 L274.07906,263.67829 Z" id="Path" fill="#F2F2F2"></path>
            <path d="M275.773,290.99227 C275.773,291.576869 275.298919,292.05095 274.71432,292.05095 L203.88852,292.05095 C198.706763,292.05095 193.918622,289.286516 191.327743,284.798983 C188.736864,280.31145 188.736864,274.78258 191.327743,270.295047 C193.918622,265.807514 198.706763,263.04308 203.88852,263.04308 L274.71432,263.04308 C275.299013,263.04308 275.773,263.517067 275.773,264.10176 C275.773,264.686453 275.299013,265.16044 274.71432,265.16044 L203.88852,265.16044 C197.051949,265.166583 191.51307,270.710442 191.51307,277.547015 C191.51307,284.383588 197.051949,289.927447 203.88852,289.93359 L274.71432,289.93359 C275.298917,289.933822 275.773,290.407673 275.773,290.99227 L275.773,290.99227 Z" id="Path" fill="#3F3D56"></path>
            <path d="M274.07906,270.03035 L199.97135,270.03035 C199.895358,270.030872 199.824913,269.99063 199.786766,269.924905 C199.748618,269.859179 199.748618,269.778051 199.786766,269.712325 C199.824913,269.6466 199.895358,269.606358 199.97135,269.60688 L274.07906,269.60688 C274.19543,269.60768 274.289345,269.702242 274.289345,269.818615 C274.289345,269.934988 274.19543,270.02955 274.07906,270.03035 L274.07906,270.03035 Z" id="Path" fill="#CCCCCC"></path>
            <path d="M274.07906,275.11205 L199.97135,275.11205 C199.895358,275.112572 199.824913,275.07233 199.786766,275.006605 C199.748618,274.940879 199.748618,274.859751 199.786766,274.794025 C199.824913,274.7283 199.895358,274.688058 199.97135,274.68858 L274.07906,274.68858 C274.19543,274.68938 274.289345,274.783942 274.289345,274.900315 C274.289345,275.016688 274.19543,275.11125 274.07906,275.11205 L274.07906,275.11205 Z" id="Path" fill="#CCCCCC"></path>
            <path d="M274.07906,280.19372 L199.97135,280.19372 C199.895358,280.194242 199.824913,280.154 199.786766,280.088275 C199.748618,280.022549 199.748618,279.941421 199.786766,279.875695 C199.824913,279.80997 199.895358,279.769728 199.97135,279.77025 L274.07906,279.77025 C274.19543,279.77105 274.289345,279.865612 274.289345,279.981985 C274.289345,280.098358 274.19543,280.19292 274.07906,280.19372 L274.07906,280.19372 Z" id="Path" fill="#CCCCCC"></path>
            <path d="M274.07906,285.27535 L199.97135,285.27535 C199.895358,285.275872 199.824913,285.23563 199.786766,285.169905 C199.748618,285.104179 199.748618,285.023051 199.786766,284.957325 C199.824913,284.8916 199.895358,284.851358 199.97135,284.85188 L274.07906,284.85188 C274.19543,284.85268 274.289345,284.947242 274.289345,285.063615 C274.289345,285.179988 274.19543,285.27455 274.07906,285.27535 L274.07906,285.27535 Z" id="Path" fill="#CCCCCC"></path>
            <path d="M354.30315,418.04308 L354.30315,394.04308 C354.30315,391.833959 352.512271,390.04308 350.30315,390.04308 L259.30315,390.04308 C257.094029,390.04308 255.30315,391.833959 255.30315,394.04308 L255.30315,418.04308 L354.30315,418.04308 Z" id="Path" fill="#CCCCCC"></path>
            <rect id="Rectangle" fill="#CCCCCC" x="255.30315" y="427.04308" width="99" height="31"></rect>
            <path d="M255.30315,467.04308 L255.30315,491.04308 C255.30315,493.252201 257.094029,495.04308 259.30315,495.04308 L350.30315,495.04308 C352.512271,495.04308 354.30315,493.252201 354.30315,491.04308 L354.30315,467.04308 L255.30315,467.04308 Z" id="Path" fill="#CCCCCC"></path>
            <circle id="Oval" fill="#FFFFFF" cx="304.30315" cy="405.04308" r="3"></circle>
            <circle id="Oval" fill="#FFFFFF" cx="304.30315" cy="445.04308" r="3"></circle>
            <circle id="Oval" fill="#FFFFFF" cx="304.46392" cy="484.19608" r="3"></circle>
            <path d="M343.07906,362.67829 L343.07906,390.20401 L274.11681,390.20401 C269.085615,390.379083 264.35983,387.79486 261.792331,383.464558 C259.224831,379.134255 259.224831,373.748045 261.792331,369.417742 C264.35983,365.08744 269.085615,362.503217 274.11681,362.67829 L343.07906,362.67829 Z" id="Path" fill="#F2F2F2"></path>
            <path d="M344.773,389.99227 C344.773,390.576869 344.298919,391.050955 343.71432,391.050955 L272.88852,391.050955 C267.703895,391.055255 262.91126,388.291763 260.317704,383.802461 C257.724148,379.31316 257.724148,373.78087 260.317704,369.291569 C262.91126,364.802267 267.703895,362.038775 272.88852,362.043075 L343.71432,362.043075 C344.299013,362.043075 344.773,362.517067 344.773,363.10176 C344.773,363.686453 344.299013,364.16044 343.71432,364.16044 L272.88852,364.16044 C266.051949,364.166583 260.51307,369.710442 260.51307,376.547015 C260.51307,383.383588 266.051949,388.927447 272.88852,388.93359 L343.71432,388.93359 C344.298917,388.933822 344.773,389.407673 344.773,389.99227 L344.773,389.99227 Z" id="Path" fill="#3F3D56"></path>
            <path d="M343.07906,369.03035 L268.97135,369.03035 C268.895358,369.030872 268.824913,368.99063 268.786766,368.924905 C268.748618,368.859179 268.748618,368.778051 268.786766,368.712325 C268.824913,368.6466 268.895358,368.606358 268.97135,368.60688 L343.07906,368.60688 C343.19543,368.60768 343.289345,368.702242 343.289345,368.818615 C343.289345,368.934988 343.19543,369.02955 343.07906,369.03035 L343.07906,369.03035 Z" id="Path" fill="#CCCCCC"></path>
            <path d="M343.07906,374.11205 L268.97135,374.11205 C268.895358,374.112572 268.824913,374.07233 268.786766,374.006605 C268.748618,373.940879 268.748618,373.859751 268.786766,373.794025 C268.824913,373.7283 268.895358,373.688058 268.97135,373.68858 L343.07906,373.68858 C343.19543,373.68938 343.289345,373.783942 343.289345,373.900315 C343.289345,374.016688 343.19543,374.11125 343.07906,374.11205 L343.07906,374.11205 Z" id="Path" fill="#CCCCCC"></path>
            <path d="M343.07906,379.19372 L268.97135,379.19372 C268.895358,379.194242 268.824913,379.154 268.786766,379.088275 C268.748618,379.022549 268.748618,378.941421 268.786766,378.875695 C268.824913,378.80997 268.895358,378.769728 268.97135,378.77025 L343.07906,378.77025 C343.19543,378.77105 343.289345,378.865612 343.289345,378.981985 C343.289345,379.098358 343.19543,379.19292 343.07906,379.19372 L343.07906,379.19372 Z" id="Path" fill="#CCCCCC"></path>
            <path d="M343.07906,384.27535 L268.97135,384.27535 C268.895358,384.275872 268.824913,384.23563 268.786766,384.169905 C268.748618,384.104179 268.748618,384.023051 268.786766,383.957325 C268.824913,383.8916 268.895358,383.851358 268.97135,383.85188 L343.07906,383.85188 C343.19543,383.85268 343.289345,383.947242 343.289345,384.063615 C343.289345,384.179988 343.19543,384.27455 343.07906,384.27535 L343.07906,384.27535 Z" id="Path" fill="#CCCCCC"></path>
            <path d="M250.11035,183.02143 L250.11035,7.52143 C250.115073,3.36941673 253.479767,0.00472278236 257.63178,2.84217094e-14 L396.36035,2.84217094e-14 C400.512352,0.00475027623 403.87703,3.36942813 403.88178,7.52143 L403.88178,183.02143 C403.877052,187.173439 400.512359,190.538127 396.36035,190.54285 L257.63178,190.54285 C253.479771,190.538127 250.115078,187.173439 250.11035,183.02143 Z M257.63178,1.67143 C254.402413,1.67504523 251.785395,4.29206288 251.78178,7.52143 L251.78178,183.02143 C251.785401,186.250795 254.402415,188.867809 257.63178,188.87143 L396.36035,188.87143 C399.589713,188.867804 402.206724,186.250793 402.21035,183.02143 L402.21035,7.52143 C402.206729,4.29206516 399.589715,1.67505073 396.36035,1.67143 L257.63178,1.67143 Z" id="Shape" fill="#E6E6E6"></path>
            <path d="M334.77549,80.59771 L334.77549,44.56202 C334.777794,42.4859866 336.460177,40.8036037 338.53621,40.8013 L369.07321,40.8013 C371.149243,40.8036037 372.831626,42.4859866 372.83393,44.56202 L372.83393,80.59771 C372.831626,82.6737417 371.149242,84.3561219 369.07321,84.35842 L338.53621,84.35842 C336.460178,84.3561219 334.777794,82.6737417 334.77549,80.59771 Z" id="Path" fill="#F9BE33"></path>
            <path d="M275.43978,97.31199 L275.43978,61.27635 C275.442084,59.2003222 277.124462,57.5179437 279.20049,57.51564 L309.73749,57.51564 C311.813518,57.5179437 313.495896,59.2003222 313.4982,61.27635 L313.4982,97.31204 C313.495896,99.3880695 311.813519,101.070451 309.73749,101.07276 L279.20049,101.07276 C277.124441,101.070451 275.442056,99.388039 275.43978,97.31199 L275.43978,97.31199 Z" id="Path" fill="#CCCCCC"></path>
            <path d="M323.07549,148.29056 L323.07549,112.25487 C323.077799,110.178841 324.760181,108.496464 326.83621,108.49416 L357.37321,108.49416 C359.449239,108.496464 361.131621,110.178841 361.13393,112.25487 L361.13393,148.29056 C361.131626,150.366593 359.449243,152.048976 357.37321,152.05128 L326.83621,152.05128 C324.760177,152.048976 323.077794,150.366593 323.07549,148.29056 Z" id="Path" fill="#48C9B0"></path>
            <path d="M505.56292,313.04308 L474.143,313.04308 C473.844824,313.042831 473.550598,313.111267 473.28314,313.24308 L465.35296,317.21308 C464.819484,317.439836 464.473121,317.963412 464.473121,318.54308 C464.473121,319.122748 464.819484,319.646324 465.35296,319.87308 L473.28314,323.84308 C473.550598,323.974893 473.844824,324.043329 474.143,324.04308 L505.56293,324.04308 C506.463951,324.095214 507.239495,323.41336 507.30316,322.51308 L507.30316,314.57314 C507.239527,313.672832 506.463966,312.990941 505.56292,313.04308 Z" id="Path" fill="#3F3D56"></path>
            <path d="M507.30315,314.57311 L507.30315,322.51305 C507.239485,323.41333 506.463941,324.095184 505.56292,324.04305 L499.30315,324.04305 L499.30315,313.04305 L505.56292,313.04305 C506.463963,312.990917 507.239517,313.672806 507.30315,314.57311 Z" id="Path" fill="#F9BE33"></path>
            <path d="M505.3265,253.64288 C508.204976,252.400683 511.476663,252.445396 514.320117,253.765791 C517.163572,255.086187 519.308732,257.556859 520.217,260.55748 C520.356852,261.027816 520.46384,261.507305 520.53719,261.99248 L564.47513,283.78064 L574.64348,277.04211 L587.29526,291.60743 L571.76934,304.21725 C567.935374,307.306837 562.52863,307.515363 558.46809,304.73025 L513.88891,273.90206 C513.557181,274.042741 513.218437,274.166271 512.87402,274.27216 C509.872913,275.179832 506.627117,274.764086 503.951665,273.129317 C501.276213,271.494547 499.425243,268.79604 498.86354,265.7114 C498.781256,265.268758 498.726972,264.821366 498.70101,264.37189 C498.447719,259.761713 501.091097,255.481151 505.3265,253.64288 L505.3265,253.64288 Z" id="Path" fill="#FFB8B8"></path>
            <path d="M596.84106,387.79165 L548.83129,387.79165 C548.83129,389.17165 499.35129,390.29165 499.35129,390.29165 C498.574665,390.876422 497.866857,391.547375 497.24143,392.29165 C495.362027,394.533164 494.334804,397.366501 494.341012,400.29165 L494.341012,402.29165 C494.343579,409.194158 499.938532,414.789111 506.84104,414.79165 L596.84104,414.79165 C603.742113,414.785651 609.335041,409.192723 609.34104,402.29165 L609.34104,400.29165 C609.331483,393.392061 603.740649,387.801218 596.84106,387.79165 Z" id="Path" fill="#3F3D56"></path>
            <rect id="Rectangle" fill="#3F3D56" transform="translate(551.117500, 456.295070) rotate(-180.000000) translate(-551.117500, -456.295070) " x="544.6175" y="414.29507" width="13" height="84"></rect>
            <path d="M507.6175,497.83835 C507.6175,499.24298 527.31697,498.38166 551.6175,498.38166 C575.91803,498.38166 595.6175,499.24298 595.6175,497.83835 C595.6175,496.43372 575.91803,485.29504 551.6175,485.29504 C527.31697,485.29504 507.6175,496.43374 507.6175,497.83835 Z" id="Path" fill="#3F3D56"></path>
            <polygon id="Path" fill="#FFB8B8" points="519.353 487.993 507.094 487.992 501.261 456.195 519.355 456.196"></polygon>
            <path d="M522.47983,499.8767 L482.94931,499.87524 L482.94931,499.37524 C482.94931,495.294502 484.570324,491.38089 487.455865,488.495395 C490.341405,485.6099 494.255042,483.98901 498.33578,483.98901 L498.33678,483.98901 L522.48058,483.99001 L522.47983,499.8767 Z" id="Path" fill="#2F2E41"></path>
            <path d="M501.01663,468.275 L476.57571,413.46735 C472.344069,403.887909 476.182565,392.664759 485.39431,387.68317 L538.40774,359.25544 L562.5989,357.19782 L584.9136,355.1695 L585.07449,355.44196 C585.2803,355.78962 590.07815,364.07673 586.83499,373.16364 C584.37499,380.05622 577.9761,385.44001 567.81619,389.16559 C544.10183,397.86091 516.70706,405.29259 506.02981,408.08359 C505.075341,408.327648 504.270696,408.968025 503.81863,409.84336 C503.365538,410.708046 503.294376,411.722726 503.62234,412.64219 L526.32888,463.65683 C526.809518,464.968135 526.654052,466.428281 525.908081,467.608985 C525.162111,468.78969 523.910202,469.557102 522.51956,469.68613 L505.553,470.92148 C505.40896,470.935153 505.26557,470.94199 505.12283,470.94199 C503.34767,470.94199 501.738986,469.896541 501.01663,468.275 Z" id="Path" fill="#2F2E41"></path>
            <polygon id="Path" fill="#FFB8B8" points="525.353 487.993 513.094 487.992 507.261 456.195 525.355 456.196"></polygon>
            <path d="M528.47983,499.8767 L488.94931,499.87524 L488.94931,499.37524 C488.94931,495.294502 490.570324,491.38089 493.455865,488.495395 C496.341405,485.6099 500.255042,483.98901 504.33578,483.98901 L504.33678,483.98901 L528.48058,483.99001 L528.47983,499.8767 Z" id="Path" fill="#2F2E41"></path>
            <path d="M508.01663,471.275 L483.57571,416.46735 C479.344069,406.887909 483.182565,395.664759 492.39431,390.68317 L545.40774,362.25544 L569.5989,360.19782 L591.9136,358.1695 L592.07449,358.44196 C592.2803,358.78962 597.07815,367.07673 593.83499,376.16364 C591.37499,383.05622 584.9761,388.44001 574.81619,392.16559 C551.10183,400.86091 523.70706,408.29259 513.02981,411.08359 C512.075341,411.327648 511.270696,411.968025 510.81863,412.84336 C510.365538,413.708046 510.294376,414.722726 510.62234,415.64219 L533.32888,466.65683 C533.809518,467.968135 533.654052,469.428281 532.908081,470.608985 C532.162111,471.78969 530.910202,472.557102 529.51956,472.68613 L512.553,473.92148 C512.40896,473.935153 512.26557,473.94199 512.12283,473.94199 C510.34767,473.94199 508.738986,472.896541 508.01663,471.275 Z" id="Path" fill="#2F2E41"></path>
            <path d="M495.83452,303.84426 C485.564108,290.182976 477.444983,275.030316 471.75912,258.91253 C471.078899,256.921515 471.938361,254.730599 473.79091,253.73315 L508.93617,234.90156 C510.088294,234.279512 511.462948,234.22371 512.6617,234.75033 C513.882785,235.280929 514.790924,236.345026 515.12301,237.63433 C519.213669,253.165913 526.902907,267.516493 537.56864,279.52506 C538.458386,280.515511 538.84148,281.861026 538.60688,283.1716 C538.381385,284.461364 537.573535,285.574993 536.41748,286.18971 L501.27223,305.02135 C499.415667,306.011315 497.115473,305.513396 495.83452,303.84426 L495.83452,303.84426 Z" id="Path" fill="#CCCCCC"></path>
            <path d="M498.23284,302.0421 C498.622892,302.528711 499.303938,302.669514 499.85491,302.3771 L535.00042,283.5451 C535.346394,283.364768 535.587917,283.032784 535.653,282.6481 C535.7273,282.241973 535.607009,281.824495 535.328,281.52017 C524.347924,269.157849 516.432129,254.384418 512.22107,238.39517 C512.122275,237.994692 511.841772,237.663517 511.46301,237.50017 C511.10616,237.340574 510.69512,237.357566 510.35266,237.54607 L475.20793,256.37755 C474.6587,256.674316 474.398437,257.319957 474.58831,257.91466 C480.172409,273.743943 488.14623,288.625369 498.23284,302.0421 L498.23284,302.0421 Z" id="Path" fill="#FFFFFF"></path>
            <path d="M612.59251,298.8209 L585.06785,309.28027 L578.34785,290.61363 C576.505557,285.496121 578.617775,279.795624 583.34985,277.11413 L583.34985,277.11413 C588.140383,274.399489 594.194612,275.58145 597.61234,279.89858 L612.59251,298.8209 Z" id="Path" fill="#6C63FF"></path>
            <path d="M542.58273,372.78091 C541.410913,371.951976 540.651989,370.659298 540.49923,369.23208 C536.97384,336.32241 539.42941,310.56802 548.00509,290.49722 C551.065335,283.483611 557.170077,278.258533 564.57199,276.31753 L586.8215,275.19448 L586.93673,275.25015 C597.246274,280.299751 603.025128,291.511945 601.156,302.83853 C593.99975,321.70181 588.00756,341.34146 592.57739,357.18472 C592.964573,358.523069 592.78985,359.961395 592.0935,361.16812 C591.418105,362.334823 590.290518,363.170486 588.97778,363.4772 L546.59933,373.55825 C545.210969,373.888524 543.747623,373.60532 542.58273,372.78091 Z" id="Path" fill="#F9BE33"></path>
            <circle id="Oval" fill="#FFB8B8" cx="579.39612" cy="242.32319" r="24.56103"></circle>
            <path d="M511.24342,261.77622 L492.10182,270.22579 C490.58603,270.892928 488.816263,270.207121 488.14582,268.69279 L487.67239,267.62028 C487.005252,266.10449 487.691059,264.334723 489.20539,263.66428 L508.34699,255.21471 C509.86278,254.547572 511.632547,255.233379 512.30299,256.74771 L512.77642,257.82022 C513.443558,259.33601 512.757751,261.105777 511.24342,261.77622 Z" id="Path" fill="#CCCCCC"></path>
            <path d="M518.24342,274.77622 L499.10182,283.22579 C497.58603,283.892928 495.816263,283.207121 495.14582,281.69279 L494.67239,280.62028 C494.005252,279.10449 494.691059,277.334723 496.20539,276.66428 L515.34699,268.21471 C516.86278,267.547572 518.632547,268.233379 519.30299,269.74771 L519.77642,270.82022 C520.443558,272.33601 519.757751,274.105777 518.24342,274.77622 L518.24342,274.77622 Z" id="Path" fill="#CCCCCC"></path>
            <path d="M533.00509,325.55335 L490.33078,291.88735 C489.990864,292.006919 489.645028,292.108941 489.29464,292.19301 C486.248494,292.905542 483.043064,292.290689 480.47677,290.5016 C477.892564,288.710653 476.206392,285.892121 475.85031,282.76821 C475.261135,277.68589 478.246552,272.866241 483.05931,271.13002 C486.010233,270.071553 489.272535,270.322047 492.02727,271.81862 C494.782006,273.315193 496.767592,275.915733 497.48558,278.96742 C497.595518,279.44557 497.672037,279.930792 497.71458,280.41957 L540.196,304.92691 L550.76778,298.84048 L562.47871,314.17248 L546.06465,325.8717 C542.118726,328.660916 536.81041,328.531512 533.00508,325.55334 L533.00509,325.55335 Z" id="Path" fill="#FFB8B8"></path>
            <path d="M567.686,318.94719 L543.33731,302.38981 L554.78019,286.18295 C557.917296,281.739818 563.798997,280.202739 568.70881,282.54295 L568.70881,282.54295 C573.679298,284.912062 576.181394,290.550342 574.60322,295.82555 L567.686,318.94719 Z" id="Path" fill="#F9BE33"></path>
            <path d="M570.39127,238.66502 C564.07856,242.98553 555.78982,247.42676 549.34236,242.82577 C545.10884,239.80468 543.77499,234.21032 545.49176,229.30091 C548.57902,220.47234 557.06119,216.5856 565.17228,213.60632 C575.71669,209.73327 587.19801,206.65208 598.0834,209.42577 C608.96879,212.19946 618.589,222.73869 616.62398,233.7987 C615.04376,242.69293 606.65398,250.09362 607.84498,259.04828 C609.04365,268.06043 619.17877,272.80417 628.12647,274.41486 C637.07417,276.02555 647.08686,276.54308 653.51721,282.97006 C661.72031,291.16886 659.67186,305.82331 651.95307,314.47961 C644.23428,323.13591 632.58624,327.05972 621.29927,329.72718 C606.34473,333.2614 590.17022,335.11879 575.96718,329.2534 C561.76414,323.38801 550.71153,307.59907 554.82592,292.79364 C556.56383,286.53984 560.65783,281.25454 564.61446,276.10913 C568.57109,270.96372 572.57756,265.58313 574.08684,259.27025 C575.34456,254.00952 574.41366,247.90156 570.92502,243.95541 C569.623237,242.53838 569.383186,240.443782 570.33063,238.76898 L570.39127,238.66502 Z" id="Path" fill="#2F2E41"></path>
            <path d="M109.07219,357.99844 C96.2008685,362.522851 81.9016132,360.003975 71.35107,351.3537 C58.13907,340.26452 53.99671,321.99516 50.62622,305.0787 C47.30314,288.40016 43.9800567,271.721627 40.65697,255.0431 L61.52863,269.41454 C76.53828,279.74962 91.88607,290.4158 102.2787,305.38566 C112.67133,320.35552 117.2077,340.79072 108.85755,356.98881" id="Path" fill="#E6E6E6"></path>
            <path d="M107.28809,418.57695 C109.40058,403.1895 111.57277,387.6044 110.09097,372.05201 C108.77497,358.23982 104.56109,344.74918 95.98215,333.68778 C91.4284336,327.827545 85.8874527,322.806492 79.60831,318.85035 C77.97091,317.81684 76.46389,320.41175 78.09415,321.44077 C88.9588895,328.307296 97.3623713,338.446715 102.093,350.39715 C107.31788,363.68662 108.15692,378.17327 107.25655,392.29052 C106.71206,400.82775 105.55808,409.30903 104.39521,417.77943 C104.204998,418.574274 104.662843,419.38065 105.44287,419.62461 C106.241057,419.839686 107.063728,419.372588 107.28805,418.57695 L107.28809,418.57695 Z" id="Path" fill="#F2F2F2"></path>
            <path d="M86.941,391.34843 C81.4207207,399.738485 71.9230117,404.640472 61.88626,404.27976 C49.20312,403.67768 38.62942,394.82564 29.11111,386.42169 L0.95782,361.56448 L19.59063,360.67278 C32.99024,360.03152 46.73555,359.43337 59.49822,363.56556 C72.26089,367.69775 84.03129,377.64246 86.36502,390.85286" id="Path" fill="#E6E6E6"></path>
            <path d="M113.25813,427.42247 C103.0904,409.43132 91.29672,389.4362 70.2234,383.04547 C64.3639645,381.274524 58.2199801,380.640136 52.12231,381.17647 C50.20051,381.34218 50.6804,384.30458 52.59871,384.13917 C62.8197393,383.290543 73.0210493,385.989437 81.4852,391.78148 C89.6301,397.32548 95.97179,405.03314 101.33934,413.20674 C104.62713,418.21331 107.57212,423.43229 110.51767,428.64427 C111.45901,430.3099 114.21046,429.10756 113.25813,427.42246 L113.25813,427.42247 Z" id="Path" fill="#F2F2F2"></path>
            <path d="M129.54973,446.35949 C128.85144,438.26785 123.70771,431.237409 116.207,428.12267 L116.207,417.72167 L98.76213,417.72167 L98.76213,428.45043 C91.6396564,431.713993 86.8210989,438.554069 86.14592,446.35949 L82.04392,494.04308 L133.65183,494.04308 L129.54973,446.35949 Z" id="Path" fill="#F2F2F2"></path>
        </g>
    </g>
</svg>